<svg width="384" height="65" viewBox="0 0 384 65" fill="none" xmlns="http://www.w3.org/2000/svg">
<path d="M87.2559 0H33.0952V65H87.2559V0Z" fill="#699DD3"/>
<path d="M383.734 0H91.2117V65H383.734V0Z" fill="#3A3749"/>
<path d="M24.3879 6.14441C24.3201 7.1196 23.9141 8.02941 23.2533 8.68715C22.5924 9.34488 21.7268 9.70067 20.834 9.6815C19.9412 9.66232 19.0889 9.26965 18.4521 8.58404C17.8153 7.89844 17.4422 6.9719 17.4094 5.99455C17.4772 5.01936 17.8832 4.10955 18.544 3.45181C19.2049 2.79407 20.0705 2.43829 20.9633 2.45746C21.8561 2.47664 22.7083 2.86931 23.3452 3.55492C23.982 4.24052 24.3551 5.16706 24.3879 6.14441" fill="#3A3749"/>
<path d="M15.8171 16.7984C15.8171 17.554 15.6121 18.2926 15.2283 18.9205C14.8445 19.5484 14.299 20.0373 13.6612 20.3252C13.0233 20.6131 12.3217 20.6871 11.6454 20.5377C10.9691 20.3882 10.3485 20.0222 9.86241 19.486C9.37631 18.9498 9.04656 18.2675 8.915 17.5257C8.78343 16.784 8.85596 16.0161 9.1234 15.3196C9.39084 14.623 9.84113 14.0291 10.4172 13.6133C10.9932 13.1974 11.669 12.9783 12.359 12.9836C13.2729 12.998 14.1448 13.4067 14.7853 14.1209C15.4258 14.8351 15.7831 15.7973 15.7798 16.7984" fill="#3A3749"/>
<path d="M6.89827 27.8202C6.8626 28.8188 6.46927 29.7619 5.80343 30.4452C5.13759 31.1286 4.25282 31.4972 3.34064 31.4714C2.89304 31.4615 2.4516 31.3552 2.04152 31.1586C1.63143 30.9619 1.26074 30.6786 0.950596 30.325C0.640453 29.9714 0.396937 29.5544 0.233951 29.0977C0.0709655 28.6411 -0.00829789 28.1537 0.000686635 27.6635C0.00967116 27.1733 0.106728 26.6898 0.286315 26.2406C0.465902 25.7915 0.724502 25.3855 1.04735 25.0458C1.3702 24.7061 1.75097 24.4394 2.16793 24.2609C2.5849 24.0824 3.02987 23.9956 3.47747 24.0055C3.93102 24.009 4.37947 24.1106 4.79709 24.3044C5.21471 24.4982 5.59329 24.7804 5.91111 25.1348C6.22892 25.4892 6.47973 25.9089 6.64913 26.3697C6.81853 26.8305 6.9032 27.3234 6.89827 27.8202" fill="#3A3749"/>
<path d="M43.8181 11.8392H50.2492C51.4465 11.8191 52.6414 11.9609 53.8069 12.2616C54.9659 12.5545 56.0635 13.0862 57.0411 13.8283C58.0226 14.5735 58.8284 15.5635 59.3921 16.7166C60.0415 18.0964 60.3624 19.6335 60.325 21.1853C60.3738 22.6678 60.0784 24.1396 59.4667 25.4632C58.897 26.6147 58.1028 27.6148 57.1406 28.3924C56.175 29.1767 55.0877 29.7629 53.9313 30.1226C52.7737 30.4849 51.5774 30.6773 50.3736 30.6948H43.9549L43.8181 11.8392ZM49.8512 27.7657C50.6885 27.75 51.5221 27.6404 52.339 27.4387C53.163 27.2422 53.9472 26.882 54.6527 26.376C55.3355 25.8582 55.8979 25.1723 56.2947 24.3733C56.7443 23.3855 56.9542 22.2876 56.9042 21.1853C56.9383 20.039 56.7118 18.9013 56.245 17.8746C55.8454 17.073 55.2732 16.3902 54.5781 15.8855C53.8671 15.4249 53.0814 15.1196 52.2644 14.9864C51.4433 14.8247 50.6108 14.7426 49.7765 14.7411H47.1021L47.1892 27.8202L49.8512 27.7657Z" fill="white"/>
<path d="M71.7817 15.8174C71.3907 15.3249 70.9011 14.9379 70.3511 14.6867C69.7707 14.3918 69.1375 14.2429 68.4977 14.2507C68.1246 14.2535 67.7531 14.3038 67.3906 14.4005C67.039 14.4908 66.7029 14.6426 66.3954 14.8501C66.1013 15.052 65.8508 15.3216 65.6615 15.6403C65.4826 15.9825 65.3885 16.37 65.3885 16.7643C65.3885 17.1586 65.4826 17.5461 65.6615 17.8883C65.8413 18.1942 66.0789 18.4543 66.3581 18.6512C66.6943 18.874 67.0534 19.0523 67.4279 19.1826C67.8508 19.3461 68.3111 19.4959 68.8211 19.6458C69.3311 19.7956 69.978 20.0545 70.5875 20.2861C71.1938 20.5202 71.7674 20.8458 72.2917 21.2534C72.7946 21.6556 73.2178 22.1655 73.5356 22.7521C73.8835 23.4533 74.0552 24.2432 74.0332 25.0409C74.0616 25.9454 73.8865 26.8438 73.5232 27.6567C73.1973 28.385 72.7202 29.0196 72.13 29.5095C71.5193 30.0257 70.8219 30.4053 70.0775 30.6267C69.2692 30.8857 68.4317 31.0187 67.5896 31.0218C66.4319 31.0305 65.2821 30.8137 64.1937 30.3815C63.1488 29.9903 62.2115 29.3153 61.4695 28.4196L63.7086 26.1989C64.1786 26.8436 64.7848 27.3533 65.4749 27.6839C66.1502 28.0248 66.8835 28.2059 67.6269 28.2153C68.0081 28.2109 68.3877 28.1607 68.7589 28.0654C69.1282 27.9676 69.4781 27.7967 69.7914 27.5613C70.0946 27.3387 70.3495 27.0456 70.5377 26.703C70.7427 26.3197 70.842 25.8797 70.8238 25.436C70.8329 24.9987 70.7154 24.5694 70.488 24.2098C70.2438 23.8746 69.9442 23.5927 69.6048 23.3788C69.2035 23.1279 68.7779 22.9269 68.336 22.7793L66.7437 22.2343C66.1978 22.0666 65.6619 21.8618 65.1391 21.6213C64.6134 21.3843 64.1229 21.0629 63.6837 20.6676C63.2451 20.254 62.8857 19.7492 62.6263 19.1826C62.3321 18.5024 62.1914 17.7549 62.2158 17.0027C62.1888 16.1474 62.3736 15.3 62.7507 14.5504C63.1232 13.8699 63.6287 13.2883 64.231 12.8474C64.8647 12.3817 65.5677 12.0406 66.3084 11.8392C67.0835 11.6119 67.8818 11.4929 68.6843 11.485C69.6172 11.4933 70.5438 11.654 71.4334 11.9619C72.3489 12.2594 73.1967 12.7655 73.9212 13.4469L71.7817 15.8174Z" fill="white"/>
<path d="M66.5697 33.6376H69.4929L77.8148 53.3788H73.9586L72.1549 48.8692L63.9201 48.9374L62.2408 53.4742H58.509L66.5697 33.6376ZM70.9483 45.8992L67.9629 37.8611L65.0521 45.9401L70.9483 45.8992Z" fill="white"/>
<path d="M51.6424 49.3869H42.5369V46.4169L50.9209 33.6512H54.9264V46.4987H57.6879V49.3869H54.914V53.4741H51.6424V49.3869ZM51.6424 37.6022L45.9452 46.4987H51.6051L51.6424 37.6022Z" fill="white"/>
<path d="M125.818 41.7712C124.93 42.3142 123.924 42.5826 122.907 42.5477C121.847 42.565 120.803 42.2685 119.884 41.6894C118.972 41.1005 118.201 40.2835 117.633 39.3052C116.988 38.1986 116.513 36.9835 116.227 35.7085C115.893 34.2337 115.73 32.7185 115.742 31.1989C115.728 29.6695 115.896 28.1445 116.24 26.6621C116.529 25.3838 117.012 24.1679 117.67 23.0654C118.249 22.1003 119.018 21.2901 119.922 20.6948C120.828 20.1197 121.859 19.8232 122.907 19.8365C123.883 19.8259 124.85 20.0442 125.743 20.4768C126.592 20.9119 127.318 21.5896 127.845 22.4387L126.253 24.3052C125.881 23.703 125.382 23.2077 124.798 22.861C124.265 22.5514 123.672 22.3878 123.069 22.3842C122.342 22.3674 121.63 22.6114 121.041 23.079C120.449 23.5923 119.969 24.244 119.635 24.9864C119.233 25.8684 118.949 26.8089 118.79 27.7793C118.596 28.9068 118.5 30.0517 118.504 31.1989C118.5 32.3371 118.596 33.473 118.79 34.5913C118.951 35.5672 119.24 36.5125 119.648 37.3979C119.983 38.151 120.477 38.8051 121.091 39.3052C121.68 39.7833 122.398 40.0326 123.131 40.0137C123.796 40.0278 124.449 39.8134 124.997 39.4006C125.504 39.0031 125.928 38.4923 126.241 37.9019L127.783 39.7003C127.282 40.5516 126.604 41.2611 125.805 41.7712" fill="#ECECEC"/>
<path d="M152.923 31.1717C152.934 32.7308 152.776 34.2859 152.45 35.8038C152.183 37.081 151.716 38.2978 151.07 39.4006C150.518 40.3463 149.778 41.1428 148.905 41.7303C148.024 42.2845 147.023 42.567 146.007 42.5477C144.987 42.5654 143.982 42.2831 143.096 41.7303C142.213 41.1476 141.464 40.3506 140.907 39.4006C140.27 38.2942 139.807 37.0783 139.538 35.8038C139.213 34.2859 139.054 32.7308 139.066 31.1717C139.05 29.6086 139.205 28.0489 139.526 26.5259C139.779 25.2546 140.234 24.0419 140.869 22.9428C141.395 22.0087 142.116 21.2244 142.972 20.654C143.875 20.0991 144.897 19.817 145.932 19.8365C146.948 19.8172 147.95 20.0997 148.831 20.654C149.705 21.222 150.446 22.0057 150.995 22.9428C151.644 24.0393 152.111 25.2521 152.376 26.5259C152.702 28.0483 152.86 29.608 152.849 31.1717H152.923ZM150.137 31.1717C150.138 30.0116 150.047 28.8537 149.863 27.7112C149.714 26.7348 149.441 25.7857 149.055 24.891C148.77 24.1724 148.346 23.5307 147.811 23.0109C147.299 22.5526 146.656 22.3066 145.994 22.3161C145.322 22.3039 144.666 22.5497 144.141 23.0109C143.572 23.5184 143.117 24.1614 142.81 24.891C142.432 25.7872 142.168 26.7362 142.026 27.7112C141.678 29.9979 141.678 32.3319 142.026 34.6186C142.168 35.5936 142.432 36.5425 142.81 37.4387C143.114 38.1706 143.569 38.8145 144.141 39.3188C144.666 39.78 145.322 40.0258 145.994 40.0137C146.656 40.0232 147.299 39.7771 147.811 39.3188C148.348 38.8018 148.773 38.1593 149.055 37.4387C149.441 36.544 149.714 35.5949 149.863 34.6186C150.046 33.4805 150.138 32.3272 150.137 31.1717Z" fill="#ECECEC"/>
<path d="M166.183 42.03V20.3679H168.746V39.4551H174.455V42.03H166.183Z" fill="#ECECEC"/>
<path d="M198.675 31.1717C198.692 32.7312 198.534 34.287 198.202 35.8038C197.933 37.0783 197.471 38.2942 196.834 39.4006C196.282 40.3463 195.542 41.1428 194.669 41.7303C193.78 42.267 192.781 42.5484 191.765 42.5484C190.749 42.5484 189.75 42.267 188.86 41.7303C187.977 41.1476 187.228 40.3506 186.671 39.4006C186.034 38.2942 185.571 37.0783 185.303 35.8038C184.971 34.287 184.812 32.7312 184.83 31.1717C184.814 29.6086 184.969 28.0489 185.29 26.5259C185.545 25.2573 185.995 24.0455 186.621 22.9428C187.172 21.9983 187.923 21.2131 188.81 20.654C189.714 20.0991 190.735 19.817 191.771 19.8365C192.787 19.8172 193.788 20.0997 194.669 20.654C195.544 21.222 196.285 22.0057 196.834 22.9428C197.473 24.0431 197.936 25.2549 198.202 26.5259C198.534 28.0472 198.693 29.6077 198.675 31.1717V31.1717ZM195.963 31.1717C195.971 30.0114 195.879 28.8528 195.689 27.7112C195.544 26.7355 195.276 25.7864 194.893 24.891C194.591 24.1659 194.145 23.5236 193.587 23.0109C193.074 22.5546 192.432 22.3089 191.771 22.3161C191.098 22.3016 190.442 22.5476 189.918 23.0109C189.349 23.5184 188.894 24.1614 188.587 24.891C188.197 25.7826 187.933 26.7333 187.803 27.7112C187.455 29.9979 187.455 32.3319 187.803 34.6186C187.933 35.5964 188.197 36.5472 188.587 37.4387C188.89 38.1706 189.346 38.8145 189.918 39.3188C190.442 39.7821 191.098 40.0281 191.771 40.0137C192.432 40.0209 193.074 39.7751 193.587 39.3188C194.147 38.8091 194.594 38.1661 194.893 37.4387C195.276 36.5433 195.544 35.5943 195.689 34.6186C195.878 33.4814 195.97 32.3275 195.963 31.1717" fill="#ECECEC"/>
<path d="M225.805 42.03V24.1008H225.718L221.215 42.03H218.901L214.448 24.1008H214.361V42.03H211.985V20.3679H215.766L220.083 37.5613H220.195L224.437 20.3679H228.38V42.03H225.805Z" fill="#ECECEC"/>
<path d="M250.024 30.6403C250.43 30.7409 250.82 30.9061 251.181 31.1308C251.616 31.3924 252.001 31.7441 252.313 32.1662C252.687 32.645 252.978 33.1944 253.172 33.7875C253.413 34.5163 253.531 35.2874 253.52 36.0627C253.548 37.0344 253.369 37.9999 252.997 38.8829C252.697 39.5629 252.271 40.1671 251.747 40.6573C251.222 41.1475 250.61 41.5129 249.95 41.7303C249.336 41.9278 248.699 42.0287 248.059 42.03H242.598V20.436H247.462C248.073 20.438 248.681 20.511 249.278 20.654C249.907 20.81 250.502 21.0968 251.032 21.4986C251.58 21.9311 252.031 22.4949 252.351 23.1471C252.714 23.9697 252.889 24.8769 252.861 25.7902C252.87 26.4211 252.795 27.05 252.637 27.6567C252.493 28.1425 252.283 28.6018 252.015 29.0191C251.776 29.4051 251.477 29.7418 251.132 30.0136C250.808 30.2652 250.457 30.4712 250.087 30.6267L250.024 30.6403ZM250.398 26.1308C250.417 25.5647 250.319 25.001 250.111 24.4823C249.951 24.0747 249.707 23.7129 249.399 23.4247C249.09 23.1365 248.726 22.9297 248.333 22.8202C247.926 22.7085 247.508 22.6536 247.089 22.6567H244.974V29.6594H247.176C247.568 29.6609 247.958 29.5965 248.333 29.4687C248.712 29.336 249.066 29.1282 249.378 28.8556C249.691 28.5546 249.942 28.1828 250.111 27.7657C250.317 27.251 250.415 26.6923 250.398 26.1308V26.1308ZM250.945 35.8992C250.96 35.25 250.85 34.6047 250.621 34.0055C250.421 33.5248 250.133 33.0938 249.776 32.7384C249.436 32.4281 249.042 32.1963 248.619 32.0572C248.216 31.9166 247.797 31.8431 247.375 31.8393H244.974V39.7412H247.462C247.922 39.7407 248.379 39.6626 248.818 39.5096C249.224 39.3579 249.6 39.122 249.925 38.8147C250.256 38.4898 250.512 38.0836 250.671 37.6295C250.867 37.0786 250.96 36.4902 250.945 35.8992Z" fill="#ECECEC"/>
<path d="M269.143 20.3542H266.568V42.03H269.143V20.3542Z" fill="#ECECEC"/>
<path d="M292.094 42.03L290.999 36.9482H285.153L283.983 42.03H281.384L286.409 20.436H289.817L294.793 42.0981L292.094 42.03ZM288.126 22.9564H288.014L285.439 34.8093H290.613L288.126 22.9564Z" fill="#ECECEC"/>
</svg>
